<svg width="613" height="442" viewBox="0 0 613 442" xmlns="http://www.w3.org/2000/svg"><title>rule one:</title><path d="M133.657 81.707c19.224 0 29.97 13.32 29.97 30.122 0 20.737-14.53 38.75-34.965 38.75-15.137 0-23.31-8.022-23.31-23.31 0-18.165 15.59-34.966 33.906-38.296-1.362-.454-2.876-1.06-4.39-1.06-15.137 0-33.15 2.27-56.157 72.05L55.854 247H.908L38.75 112.435c.908-3.33 1.362-6.055 1.362-8.023 0-3.481-1.362-4.995-4.087-4.995-6.206 0-11.504 4.692-17.104 19.526l-7.114 18.921H5.903l8.628-24.218c8.477-23.16 24.824-31.939 46.167-31.939 21.797 0 28.76 13.926 28.76 29.517 0 1.816-.151 3.784-.303 5.752 12.261-26.792 25.127-35.269 44.502-35.269zm194.961 113.525h5.903l-8.779 24.22c-8.325 23.158-25.58 31.938-44.199 31.938-14.683 0-23.31-4.693-27.7-12.11-2.573-4.39-3.633-9.384-3.633-14.985 0-5.147.908-10.747 2.422-16.348l6.963-26.64c-24.219 58.125-43.594 70.083-70.84 70.083-18.618 0-29.063-8.78-29.063-25.884 0-6.055 1.363-13.018 3.936-21.04l30.122-92.031c1.06-3.18 1.514-5.601 1.514-7.417 0-4.996-3.179-5.601-5.298-5.601-3.633 0-9.839 2.12-16.348 19.526l-6.509 17.408h-5.903l7.72-22.705c9.082-26.036 28.003-31.939 44.35-31.939 20.435 0 32.696 9.385 32.696 29.214 0 6.811-1.363 14.834-4.541 24.219l-26.641 80.224c-1.665 5.298-2.573 9.234-2.573 12.11 0 3.178 1.06 4.692 3.179 4.692 15.59 0 46.318-66.299 65.087-130.327l4.087-15.742c21.343-.303 39.961-1.514 56.158-4.39l-39.053 138.955c-1.211 3.936-1.968 6.963-1.968 8.93 0 2.877 1.362 4.088 4.692 4.088 6.206 0 11.504-4.693 17.105-19.527l7.114-18.92zM463.79.574L398.4 220.662c-.606 2.27-.909 4.238-.909 5.752 0 5.45 3.028 7.266 5.904 7.266 2.119 0 8.93-1.211 15.742-19.527l6.509-17.407h5.903l-7.72 22.705c-9.233 26.64-29.516 31.939-44.048 31.939-20.132 0-32.695-10.596-32.695-31.485 0-6.357 1.21-13.623 3.633-21.948l47.378-157.725c.908-3.33 1.513-6.206 1.513-8.628 0-8.022-5.6-11.806-21.04-11.806l2.12-6.509c33.906-.303 58.579-4.692 83.1-12.715zm136.08 108.53c0 37.388-51.163 63.272-97.784 74.019-.606 5.45-1.06 10.747-1.06 15.894 0 24.067 10.142 29.97 25.733 29.97 8.325 0 26.64-5.298 43.442-21.645l4.844 2.422c-13.926 20.737-40.566 41.626-78.408 41.626-29.063 0-53.584-14.986-53.584-43.745 0-60.396 50.254-125.938 118.369-125.938 22.1 0 38.447 8.78 38.447 27.397zM554.61 87.61c-17.71 0-44.199 46.621-51.616 89.912 10.142-5.751 19.98-12.714 28.457-21.04 16.348-16.196 28.154-36.933 28.154-61 0-5.601-1.816-7.872-4.995-7.872zM1.816 388.714c0-48.74 33.453-117.007 107.925-117.007 36.026 0 55.25 18.92 55.25 52.827 0 48.589-33.604 116.856-107.926 116.856-36.025 0-55.249-18.921-55.249-52.676zm106.412-110.8c-17.71 0-54.947 82.191-54.947 139.862 0 13.018 1.968 17.408 5.904 17.408 16.499 0 54.34-76.895 54.34-139.258 0-15.742-2.573-18.013-5.297-18.013zm237.797 108.832l-6.508 17.407c-6.51 17.408-12.715 19.527-16.5 19.527-1.967 0-5.146-.606-5.146-5.6 0-1.817.454-4.24 1.514-7.418l30.576-92.031c2.573-7.72 4.087-14.834 4.087-21.192 0-15.288-8.477-25.732-30.425-25.732-27.397 0-46.772 13.926-71.597 75.684l8.477-32.242c1.21-4.692 1.968-9.536 1.968-14.228 0-15.44-7.871-29.214-32.696-29.214-21.342 0-34.814 10.293-42.534 31.939l-8.628 24.218h5.904l7.114-18.92c5.6-14.835 10.898-19.527 17.104-19.527 3.18 0 4.541 1.21 4.541 4.087 0 2.119-.756 4.995-1.816 8.93L173.618 437h54.946l.455-1.514-.152.606c17.862-68.267 52.07-145.161 68.72-145.161 2.12 0 3.331 1.513 3.331 4.692 0 2.725-.908 6.812-2.725 12.11l-26.64 80.224c-3.33 10.293-4.844 18.315-4.844 24.824 0 7.417 1.816 12.866 5.146 17.407 5.298 7.417 15.289 11.202 28.003 11.202 16.348 0 35.269-5.904 44.351-31.939l7.72-22.705h-5.904zm174.527-87.642c0 37.388-51.162 63.272-97.783 74.019-.606 5.45-1.06 10.747-1.06 15.894 0 24.067 10.142 29.97 25.732 29.97 8.326 0 26.641-5.298 43.443-21.645l4.844 2.422c-13.926 20.737-40.567 41.626-78.409 41.626-29.062 0-53.584-14.986-53.584-43.745 0-60.396 50.254-125.938 118.37-125.938 22.1 0 38.447 8.78 38.447 27.397zm-45.259-21.494c-17.71 0-44.2 46.621-51.616 89.912 10.141-5.751 19.98-12.714 28.457-21.04 16.347-16.196 28.154-36.933 28.154-61 0-5.601-1.816-7.872-4.995-7.872zm77.803 27.095c0 13.32 8.325 20.435 24.218 20.435 19.527 0 34.966-15.894 34.966-32.242 0-13.925-8.628-21.191-24.521-21.191-19.83 0-34.663 13.774-34.663 32.998zm-30.88 116.25c0 13.32 8.326 20.435 24.22 20.435 19.526 0 34.965-15.894 34.965-32.242 0-13.925-8.628-21.191-24.521-21.191-19.83 0-34.663 13.774-34.663 32.998z" fill="#111" fill-rule="evenodd"/></svg>