<?xml version="1.0" encoding="UTF-8"?>
<svg width="613px" height="442px" viewBox="0 0 613 442" version="1.1" xmlns="http://www.w3.org/2000/svg" xmlns:xlink="http://www.w3.org/1999/xlink">
    <!-- Generator: Sketch 45.2 (43514) - http://www.bohemiancoding.com/sketch -->
    <title>rule one:</title>
    <desc>Created with Sketch.</desc>
    <defs></defs>
    <g id="Page-1" stroke="none" stroke-width="1" fill="none" fill-rule="evenodd">
        <g id="Desktop" transform="translate(-10.000000, -760.000000)" fill="#111111">
            <g id="rule-one" transform="translate(0.000000, 750.000000)">
                <g id="rule-one-bg">
                    <path d="M143.657227,91.7070312 C162.880859,91.7070312 173.62793,105.027344 173.62793,121.829102 C173.62793,142.566406 159.09668,160.579102 138.662109,160.579102 C123.525391,160.579102 115.351562,152.556641 115.351562,137.268555 C115.351562,119.104492 130.942383,102.302734 149.257812,98.9726562 C147.895508,98.5185547 146.381836,97.9130859 144.868164,97.9130859 C129.731445,97.9130859 111.71875,100.183594 88.7109375,169.963867 L65.8544922,257 L10.9082031,257 L48.75,122.43457 C49.6582031,119.104492 50.1123047,116.379883 50.1123047,114.412109 C50.1123047,110.930664 48.75,109.416992 46.0253906,109.416992 C39.8193359,109.416992 34.5214844,114.109375 28.9208984,128.943359 L21.8066406,147.864258 L15.9033203,147.864258 L24.53125,123.645508 C33.0078125,100.486328 49.3554688,91.7070312 70.6982422,91.7070312 C92.4951172,91.7070312 99.4580078,105.632812 99.4580078,121.223633 C99.4580078,123.040039 99.3066406,125.007812 99.1552734,126.975586 C111.416016,100.183594 124.282227,91.7070312 143.657227,91.7070312 Z M338.618164,205.232422 L344.521484,205.232422 L335.742188,229.451172 C327.416992,252.610352 310.161133,261.389648 291.542969,261.389648 C276.860352,261.389648 268.232422,256.697266 263.842773,249.280273 C261.269531,244.890625 260.209961,239.895508 260.209961,234.294922 C260.209961,229.148438 261.118164,223.547852 262.631836,217.947266 L269.594727,191.306641 C245.375977,249.431641 226.000977,261.389648 198.754883,261.389648 C180.136719,261.389648 169.692383,252.610352 169.692383,235.505859 C169.692383,229.451172 171.054688,222.488281 173.62793,214.46582 L203.75,122.43457 C204.80957,119.255859 205.263672,116.833984 205.263672,115.017578 C205.263672,110.022461 202.084961,109.416992 199.96582,109.416992 C196.333008,109.416992 190.126953,111.536133 183.618164,128.943359 L177.109375,146.350586 L171.206055,146.350586 L178.925781,123.645508 C188.007812,97.6103516 206.928711,91.7070312 223.276367,91.7070312 C243.710938,91.7070312 255.97168,101.091797 255.97168,120.920898 C255.97168,127.732422 254.609375,135.754883 251.430664,145.139648 L224.790039,225.364258 C223.125,230.662109 222.216797,234.597656 222.216797,237.473633 C222.216797,240.652344 223.276367,242.166016 225.395508,242.166016 C240.986328,242.166016 271.713867,175.867188 290.483398,111.838867 L294.570312,96.0966797 C315.913086,95.7939453 334.53125,94.5830078 350.727539,91.7070312 L311.674805,230.662109 C310.463867,234.597656 309.707031,237.625 309.707031,239.592773 C309.707031,242.46875 311.069336,243.679688 314.399414,243.679688 C320.605469,243.679688 325.90332,238.987305 331.503906,224.15332 L338.618164,205.232422 Z M473.789062,10.5742188 L408.398438,230.662109 C407.792969,232.932617 407.490234,234.900391 407.490234,236.414063 C407.490234,241.863281 410.517578,243.679688 413.393555,243.679688 C415.512695,243.679688 422.324219,242.46875 429.135742,224.15332 L435.644531,206.746094 L441.547852,206.746094 L433.828125,229.451172 C424.594727,256.091797 404.311523,261.389648 389.780273,261.389648 C369.648438,261.389648 357.084961,250.793945 357.084961,229.905273 C357.084961,223.547852 358.295898,216.282227 360.717773,207.957031 L408.095703,50.2324219 C409.003906,46.9023438 409.609375,44.0263672 409.609375,41.6044922 C409.609375,33.5820312 404.008789,29.7978516 388.569336,29.7978516 L390.688477,23.2890625 C424.594727,22.9863281 449.267578,18.5966797 473.789062,10.5742188 Z M609.868164,119.104492 C609.868164,156.492188 558.706055,182.375977 512.084961,193.123047 C511.479492,198.572266 511.025391,203.870117 511.025391,209.016602 C511.025391,233.083984 521.166992,238.987305 536.757812,238.987305 C545.083008,238.987305 563.398438,233.689453 580.200195,217.341797 L585.043945,219.763672 C571.118164,240.500977 544.477539,261.389648 506.635742,261.389648 C477.573242,261.389648 453.051758,246.404297 453.051758,217.644531 C453.051758,157.249023 503.305664,91.7070312 571.420898,91.7070312 C593.520508,91.7070312 609.868164,100.486328 609.868164,119.104492 Z M564.609375,97.6103516 C546.899414,97.6103516 520.410156,144.231445 512.993164,187.522461 C523.134766,181.770508 532.973633,174.807617 541.450195,166.482422 C557.797852,150.286133 569.604492,129.548828 569.604492,105.481445 C569.604492,99.8808594 567.788086,97.6103516 564.609375,97.6103516 Z M11.8164062,398.713867 C11.8164062,349.973633 45.2685547,281.707031 119.741211,281.707031 C155.766602,281.707031 174.990234,300.62793 174.990234,334.53418 C174.990234,383.123047 141.386719,451.389648 67.0654297,451.389648 C31.0400391,451.389648 11.8164062,432.46875 11.8164062,398.713867 Z M118.227539,287.913086 C100.517578,287.913086 63.28125,370.105469 63.28125,427.776367 C63.28125,440.793945 65.2490234,445.183594 69.1845703,445.183594 C85.6835938,445.183594 123.525391,368.289062 123.525391,305.925781 C123.525391,290.183594 120.952148,287.913086 118.227539,287.913086 Z M356.025391,396.746094 L349.516602,414.15332 C343.007812,431.560547 336.801758,433.679688 333.017578,433.679688 C331.049805,433.679688 327.871094,433.074219 327.871094,428.079102 C327.871094,426.262695 328.325195,423.84082 329.384766,420.662109 L359.960938,328.630859 C362.53418,320.911133 364.047852,313.796875 364.047852,307.439453 C364.047852,292.151367 355.571289,281.707031 333.623047,281.707031 C306.225586,281.707031 286.850586,295.632812 262.026367,357.390625 L270.50293,325.149414 C271.713867,320.457031 272.470703,315.613281 272.470703,310.920898 C272.470703,295.481445 264.599609,281.707031 239.775391,281.707031 C218.432617,281.707031 204.960938,292 197.241211,313.645508 L188.613281,337.864258 L194.516602,337.864258 L201.630859,318.943359 C207.231445,304.109375 212.529297,299.416992 218.735352,299.416992 C221.914062,299.416992 223.276367,300.62793 223.276367,303.503906 C223.276367,305.623047 222.519531,308.499023 221.459961,312.43457 L183.618164,447 L238.564453,447 L239.018555,445.486328 L238.867188,446.091797 C256.728516,377.825195 290.9375,300.930664 307.587891,300.930664 C309.707031,300.930664 310.917969,302.444336 310.917969,305.623047 C310.917969,308.347656 310.009766,312.43457 308.193359,317.732422 L281.552734,397.957031 C278.222656,408.25 276.708984,416.272461 276.708984,422.78125 C276.708984,430.198242 278.525391,435.647461 281.855469,440.188477 C287.15332,447.605469 297.143555,451.389648 309.858398,451.389648 C326.206055,451.389648 345.126953,445.486328 354.208984,419.451172 L361.928711,396.746094 L356.025391,396.746094 Z M530.551758,309.104492 C530.551758,346.492188 479.389648,372.375977 432.768555,383.123047 C432.163086,388.572266 431.708984,393.870117 431.708984,399.016602 C431.708984,423.083984 441.850586,428.987305 457.441406,428.987305 C465.766602,428.987305 484.082031,423.689453 500.883789,407.341797 L505.727539,409.763672 C491.801758,430.500977 465.161133,451.389648 427.319336,451.389648 C398.256836,451.389648 373.735352,436.404297 373.735352,407.644531 C373.735352,347.249023 423.989258,281.707031 492.104492,281.707031 C514.204102,281.707031 530.551758,290.486328 530.551758,309.104492 Z M485.292969,287.610352 C467.583008,287.610352 441.09375,334.231445 433.676758,377.522461 C443.818359,371.770508 453.657227,364.807617 462.133789,356.482422 C478.481445,340.286133 490.288086,319.548828 490.288086,295.481445 C490.288086,289.880859 488.47168,287.610352 485.292969,287.610352 Z M563.095703,314.705078 C563.095703,328.025391 571.420898,335.139648 587.314453,335.139648 C606.84082,335.139648 622.280273,319.246094 622.280273,302.898438 C622.280273,288.972656 613.652344,281.707031 597.758789,281.707031 C577.929688,281.707031 563.095703,295.481445 563.095703,314.705078 Z M532.216797,430.955078 C532.216797,444.275391 540.541992,451.389648 556.435547,451.389648 C575.961914,451.389648 591.401367,435.496094 591.401367,419.148438 C591.401367,405.222656 582.773438,397.957031 566.879883,397.957031 C547.050781,397.957031 532.216797,411.731445 532.216797,430.955078 Z" id="rule-one:"></path>
                </g>
            </g>
        </g>
    </g>
</svg>